{"title":"Muscular Worker Helps Charming Brunette Solve Her Problems[trueh","uid":7498266,"size":927812759,"categoryP":"porn","categoryS":"movies","magnet":"?xt=urn:btih:a394452b7756c42a2aae88c178d4e33cdbb145ca&amp;dn=Muscular+Worker+Helps+Charming+Brunette+Solve+Her+Problems%5Btrueh&amp;tr=udp%3A%2F%2Ftracker.openbittorrent.com%3A80&amp;tr=udp%3A%2F%2Fopen.demonii.com%3A1337&amp;tr=udp%3A%2F%2Ftracker.coppersurfer.tk%3A6969&amp;tr=udp%3A%2F%2Fexodus.desync.com%3A6969","seeders":1,"leechers":0,"uploader":"hdporn","files":1,"time":1343941559,"description":"Format : MPEG-4\nFormat profile : Base Media\nCodec ID : isom\nFile size : 885 MiB\nDuration : 31mn 34s\nOverall bit rate mode : Variable\nOverall bit rate : 3 918 Kbps\nWriting application : Lavf52.64.2\n\nVideo\nID : 1\nFormat : AVC\nFormat/Info : Advanced Video Codec\nFormat profile : &lt;a class=&quot;__cf_email__&quot; href=&quot;/cdn-cgi/l/email-protection&quot; data-cfemail=&quot;226a4b454a626e160c12&quot;&gt;[email&amp;#160;protected]&lt;/a&gt;&lt;script cf-hash='f9e31' type=&quot;text/javascript&quot;&gt;\n/* &lt;![CDATA[ */!function(){try{var t=&quot;currentScript&quot;in document?document.currentScript:function(){for(var t=document.getElementsByTagName(&quot;script&quot;),e=t.length;e--;)if(t[e].getAttribute(&quot;cf-hash&quot;))return t[e]}();if(t&amp;&amp;t.previousSibling){var e,r,n,i,c=t.previousSibling,a=c.getAttribute(&quot;data-cfemail&quot;);if(a){for(e=&quot;&quot;,r=parseInt(a.substr(0,2),16),n=2;a.length-n;n+=2)i=parseInt(a.substr(n,2),16)^r,e+=String.fromCharCode(i);e=document.createTextNode(e),c.parentNode.replaceChild(e,c)}}}catch(u){}}();/* ]]&gt; */&lt;/script&gt;\nFormat settings, CABAC : Yes\nFormat settings, ReFrames : 4 frames\nCodec ID : avc1\nCodec ID/Info : Advanced Video Coding\nDuration : 31mn 34s\nDuration_FirstFrame : -33ms\nBit rate mode : Variable\nBit rate : 3 868 Kbps\nWidth : 1 920 pixels\nHeight : 1 080 pixels\nDisplay aspect ratio : 16:9\nFrame rate mode : Variable\nFrame rate : 29.970 fps\nMinimum frame rate : 14.985 fps\nMaximum frame rate : 29.970 fps\nColor space : YUV\nChroma subsampling : 4:2:0\nBit depth : 8 bits\nScan type : Progressive\nBits/(Pixel*Frame) : 0.062\nStream size : 873 MiB (99%)\nLanguage : English\n\nAudio\nID : 2\nFormat : AAC\nFormat/Info : Advanced Audio Codec\nFormat profile : LC\nCodec ID : 40\nDuration : 31mn 34s\nBit rate mode : Variable\nBit rate : 48.0 Kbps\nChannel(s) : 2 channels\nChannel positions : Front: L R\nSampling rate : 48.0 KHz\nCompression mode : Lossy\nStream size : 11.1 MiB (1%)\nLanguage : English","torrent":{"xt":"urn:btih:a394452b7756c42a2aae88c178d4e33cdbb145ca","amp;dn":"Muscular+Worker+Helps+Charming+Brunette+Solve+Her+Problems%5Btrueh","amp;tr":["udp%3A%2F%2Ftracker.openbittorrent.com%3A80","udp%3A%2F%2Fopen.demonii.com%3A1337","udp%3A%2F%2Ftracker.coppersurfer.tk%3A6969","udp%3A%2F%2Fexodus.desync.com%3A6969"],"infoHash":"a394452b7756c42a2aae88c178d4e33cdbb145ca","infoHashBuffer":{"type":"Buffer","data":[163,148,69,43,119,86,196,42,42,174,136,193,120,212,227,60,219,177,69,202]},"announce":[],"urlList":[]}}